<svg xmlns="http://www.w3.org/2000/svg" viewBox="28 27 31.89 29.881"><defs><style>.a{fill:none;stroke:#262755;}.b{fill:#262755;}</style></defs><g transform="translate(-106 -167)"><line class="a" y1="7.623" x2="3.427" transform="translate(136.152 199.52)"/><line class="a" x1="14.891" y1="1.241" transform="translate(139.579 199.52)"/><line class="a" y1="3.486" x2="4.136" transform="translate(154.47 197.275)"/><line class="a" x2="13.118" y2="1.123" transform="translate(145.488 196.152)"/><line class="a" x1="5.909" y2="3.368" transform="translate(139.579 196.152)"/><line class="a" x1="4.136" y1="13.827" transform="translate(139.579 199.52)"/><line class="a" y1="12.586" x2="10.754" transform="translate(143.716 200.761)"/><line class="a" x1="9.573" y1="9.573" transform="translate(154.47 200.761)"/><line class="a" x1="5.436" y1="13.059" transform="translate(158.606 197.275)"/><line class="a" x1="10.104" y2="11.7" transform="translate(153.938 210.334)"/><line class="a" x2="10.223" y2="8.686" transform="translate(143.716 213.347)"/><line class="a" x1="3.545" y2="6.441" transform="translate(140.17 213.347)"/><line class="a" x1="13.768" y1="2.245" transform="translate(140.17 219.788)"/><line class="a" x2="4.018" y2="12.645" transform="translate(136.152 207.143)"/><circle class="b" cx="2" cy="2" r="2" transform="translate(141.563 211.195)"/><circle class="b" cx="2" cy="2" r="2" transform="translate(137.427 197.368)"/><circle class="b" cx="2" cy="2" r="2" transform="translate(152.318 198.609)"/><circle class="b" cx="2" cy="2" r="2" transform="translate(156.454 195.123)"/><circle class="b" cx="2" cy="2" r="2" transform="translate(143.336 194)"/><circle class="b" cx="2" cy="2" r="2" transform="translate(161.89 208.182)"/><circle class="b" cx="2" cy="2" r="2" transform="translate(151.786 219.881)"/><circle class="b" cx="2" cy="2" r="2" transform="translate(138.018 217.636)"/><circle class="b" cx="2" cy="2" r="2" transform="translate(134 204.991)"/></g></svg>