<?xml version="1.0" standalone="no"?>
<!DOCTYPE svg PUBLIC "-//W3C//DTD SVG 1.1//EN" "http://www.w3.org/Graphics/SVG/1.1/DTD/svg11.dtd" >
<svg xmlns="http://www.w3.org/2000/svg">
<metadata>
This is a custom SVG font generated by IcoMoon.
<iconset grid="64"></iconset>
</metadata>
<defs>
<font id="harryatkins-me" horiz-adv-x="2048" >
<font-face units-per-em="2048" ascent="1952" descent="-96" />
<missing-glyph horiz-adv-x="2048" />
<glyph class="hidden" unicode="&#xf000;" d="M0,1952L 2048 -96L0 -96 z" horiz-adv-x="0" />
<glyph unicode="&#x21;" d="M 121.076,1952l 164.288-1843.26L 1022.876-96l 739.448,205.048L 1926.924,1952L 121.076,1952 z M 1621.524,226.352L 1027.072,61.6l0-0.932 
		l-1.552,0.468l-1.564-0.468L 1023.956,61.6 l-594.444,164.752L 289.028,1801.324l 1472.992,0 L 1621.524,226.352zM 1301.508,891.592L 1275.368,598.488L 1023.496,530.504L 1022.948,530.348L 771.224,598.18L 755.124,778.648L 528.144,778.648L 559.804,423.624L 1022.948,295.116L 1023.188,295.116L 1023.496,295.116L 1023.956,295.272L 1486.64,423.624L 1548.72,1117.648L 724.788,1117.648L 704.184,1349.144L 1568.468,1349.144L 1569.252,1349.144L 1589.476,1575.196L 457.040,1575.196L 518.036,891.592 	z" data-tags="html5, w3c" />
<glyph unicode="&#x22;" d="M 1152.064,1056 L 1152.060,587.632 C 1152.060,468.796 1150.52,400.32 1163.12,366.632 C 1175.62,333.124 1206.956,298.34 1241.1,278.228 C 1286.468,251.052 1338.184,237.476 1396.516,237.476 C 1500.224,237.476 1561.472,251.172 1664,318.556 L 1664,10.668 L 1664,10.668 C 1576.6-30.436 1500.268-54.52 1429.352-71.176 C 1358.352-87.66 1281.632-95.988 1199.224-95.988 C 1105.568-95.988 1050.312-84.216 978.404-60.676 C 906.488-36.94 845.084-3.064 794.364,40.404 C 743.464,84.248 708.32,130.82 688.668,180.068 C 669.016,229.34 659.236,300.896 659.236,394.556 L 659.236,1112.756 L 384.384,1112.756 L 384.384,1402.768 C 464.8,1428.852 554.712,1466.344 611.944,1515.072 C 669.452,1563.972 715.476,1622.484 750.156,1690.96 C 784.94,1759.252 808.852,1846.384 821.9,1951.992 L 1152.068,1951.992 L 1152.064,1440 L 1664,1440 L 1664,1056 L 1152.064,1056 Z" data-tags="tumblr, social" />
<glyph unicode="&#x23;" d="M 1024,288.216c-38.308,0-76.616,19.832-116.284,59.5c-15.62,15.62-15.62,40.948,0,56.572c 15.62,15.616, 40.948,15.616, 56.572,0
		C 988.7,379.868, 1008.232,368, 1024,368c 15.764,0, 35.3,11.868, 59.716,36.284c 15.624,15.616, 40.944,15.616, 56.572,0
		c 15.62-15.62, 15.62-40.948,0-56.572C 1100.616,308.048, 1062.308,288.216, 1024,288.216zM 0,901.016 C 0,801.232 8.532,710.772 25.6,629.652 C 42.668,548.532 66.668,478.172 97.6,418.588 C 128.532,359.004 167.644,306.78 214.932,261.908 C 262.22,217.036 313.596,180.068 369.064,150.992 C 424.532,121.92 487.996,98.4 559.464,80.46 C 630.928,62.512 703.64,49.948 777.596,42.768 C 851.552,35.588 932.976,32 1021.864,32 C 1110.752,32 1192.348,35.58 1266.66,42.76 C 1340.972,49.94 1413.864,62.504 1485.324,80.452 C 1556.792,98.4 1620.44,121.912 1676.26,150.984 C 1732.080,180.060 1783.816,217.036 1831.456,261.9 C 1879.104,306.772 1918.396,358.996 1949.324,418.58 C 1980.264,478.168 2004.444,548.528 2021.864,629.644 C 2039.284,710.764 2047.996,801.22 2047.996,901.004 C 2047.996,1079.764 1992.524,1233.748 1881.596,1362.968 C 1887.996,1380.2 1893.504,1399.94 1898.128,1422.196 C 1902.744,1444.452 1907.192,1475.86 1911.456,1516.42 C 1915.732,1556.984 1914.128,1603.828 1906.66,1656.948 C 1899.192,1710.076 1885.152,1764.276 1864.528,1819.552 L 1848.528,1822.788 C 1837.864,1824.94 1820.444,1824.224 1796.264,1820.628 C 1772.092,1817.040 1743.82,1810.584 1711.468,1801.248 C 1679.116,1791.92 1637.336,1773.432 1586.132,1745.792 C 1534.936,1718.156 1480.892,1683.156 1424,1640.8 C 1327.288,1670.236 1193.96,1701.032 1024,1701.032 C 854.048,1701.032 720.356,1670.24 622.94,1640.804 C 566.048,1683.164 511.828,1717.98 460.272,1745.26 C 408.712,1772.544 367.468,1791.208 336.536,1801.256 C 305.6,1811.304 276.98,1817.768 250.668,1820.636 C 224.356,1823.508 207.464,1824.408 200,1823.328 C 192.536,1822.252 187.024,1820.996 183.468,1819.56 C 162.84,1764.28 148.62,1710.080 140.796,1656.952 C 132.976,1603.832 131.196,1557.168 135.464,1516.968 C 139.732,1476.764 144.352,1445.172 149.332,1422.204 C 154.312,1399.232 160,1379.488 166.4,1362.976 C 55.468,1234.476 0,1080.492 0,901.016 Z M 273.072,673.192 C 273.072,789.236 315.736,894.468 401.072,988.904 C 426.672,1017.716 456.364,1039.528 490.14,1054.328 C 523.92,1069.132 562.316,1077.54 605.34,1079.54 C 648.364,1081.54 689.428,1081.14 728.54,1078.34 C 767.652,1075.536 816.008,1071.736 873.608,1066.936 C 931.204,1062.128 980.984,1059.732 1022.94,1059.732 C 1064.892,1059.732 1114.676,1062.132 1172.268,1066.936 C 1229.88,1071.736 1278.232,1075.536 1317.34,1078.34 C 1356.46,1081.14 1397.52,1081.54 1440.544,1079.54 C 1483.568,1077.536 1522.148,1069.132 1556.28,1054.328 C 1590.412,1039.528 1620.28,1017.716 1645.88,988.904 C 1731.208,894.468 1773.88,789.236 1773.88,673.192 C 1773.88,605.168 1766.772,544.544 1752.544,491.324 C 1738.324,438.1 1720.364,393.492 1698.676,357.48 C 1676.988,321.464 1646.58,291.044 1607.48,266.24 C 1568.364,241.428 1530.496,222.22 1493.88,208.62 C 1457.256,195.020 1409.964,184.412 1352.012,176.808 C 1294.048,169.216 1242.144,164.604 1196.268,163.008 C 1150.4,161.408 1092.628,160.608 1022.94,160.608 C 953.252,160.608 895.652,161.412 850.14,163.008 C 804.628,164.604 752.896,169.216 694.94,176.808 C 636.984,184.412 589.696,195.016 553.072,208.62 C 516.452,222.224 478.584,241.428 439.472,266.24 C 400.36,291.048 369.96,321.464 348.272,357.48 C 326.58,393.492 308.624,438.1 294.404,491.324 C 280.184,544.544 273.072,605.168 273.072,673.192 ZM 512,735.992A128,192 3060 1 1 768,735.992A128,192 3060 1 1 512,735.992zM 1280,735.992A128,192 3060 1 1 1536,735.992A128,192 3060 1 1 1280,735.992z" data-tags="github, octacat, social" />
<glyph unicode="&#x24;" d="M 2048,1563.164c-75.352-33.416-156.328-56.004-241.32-66.16c 86.744,52, 153.372,134.34, 184.744,232.46
	c-81.192-48.156-171.112-83.12-266.82-101.96c-76.64,81.66-185.844,132.68-306.692,132.68c-232.044,0-420.176-188.116-420.176-420.156
	c0-32.932, 3.716-65, 10.88-95.756c-349.2,17.528-658.804,184.8-866.036,439.012c-36.168-62.056-56.892-134.232-56.892-211.236
	c0-145.776, 74.176-274.384, 186.92-349.732c-68.876,2.184-133.664,21.084-190.308,52.556c-0.040-1.752-0.040-3.512-0.040-5.284
	c0-203.576, 144.836-373.392, 337.044-412c-35.252-9.6-72.376-14.744-110.696-14.744c-27.076,0-53.396,2.64-79.056,7.544
	c 53.472-166.92, 208.64-288.412, 392.504-291.792c-143.8-112.7-324.972-179.868-521.832-179.868c-33.916,0-67.36,1.988-100.232,5.88
	c 185.944-119.22, 406.804-188.788, 644.084-188.788c 772.844,0, 1195.472,640.248, 1195.472,1195.488c0,18.216-0.412,36.336-1.22,54.36
	C 1920.44,1404.908, 1991.672,1478.908, 2048,1563.164z" data-tags="twitter, tweet, social" />
<glyph unicode="&#x25;" d="M 1151.74-96L 768-96 L 768,928 l-256,0 l0,352.9 l 256,0.116l-0.416,207.904C 767.584,1776.824, 845.652,1952, 1184.78,1952l 282.352,0 l0-352.968 l-176.46,0 
	c-132.064,0-138.412-49.312-138.412-141.368l-0.524-176.648l 317.38,0 l-37.408-352.9L 1152,928L 1151.74-96z" data-tags="facebook, social" />
<glyph unicode="&#x26;" d="M 1024.004-96C 459.364-96,0,363.364,0,928S 459.364,1952, 1024.004,1952
	C 1588.648,1952, 2048,1492.636, 2048,928S 1588.648-96, 1024.004-96z M 1887.596,787.828c-29.924,9.44-270.728,81.264-544.82,37.396
	c 114.408-314.372, 160.956-570.416, 169.916-623.616C 1708.92,334.28, 1848.608,544.46, 1887.596,787.828z M 1365.664,121.524
	c-13.012,76.74-63.796,344.18-186.596,663.28c-1.92-0.656-3.844-1.28-5.76-1.944c-493.34-171.916-670.432-514.032-686.172-546.208
	c 148.3-115.648, 334.672-184.64, 536.872-184.64C 1145.168,52.012, 1260.644,76.792, 1365.664,121.524z M 374.196,341.844
	c 19.816,33.92, 259.86,431.368, 710.952,577.188c 11.408,3.68, 22.896,7.14, 34.472,10.4c-21.96,49.688-45.88,99.428-70.912,148.432
	c-436.796-130.72-860.648-125.26-898.92-124.472c-0.264-8.884-0.444-17.78-0.444-26.732C 149.344,702.020, 234.504,496.912, 374.196,341.844z
	 M 167.824,1105.808c 39.116-0.52, 399.472-2.084, 808.604,106.564c-144.92,257.624-301.224,474.22-324.284,505.84
	C 407.448,1602.796, 224.54,1377.22, 167.824,1105.808z M 819.036,1777c 24.176-32.368, 183.036-248.696, 326.36-512.028
	c 311.016,116.568, 442.68,293.54, 458.416,315.948c-154.46,137.036-357.564,220.4-579.804,220.4C 953.428,1801.32, 884.808,1792.856, 819.036,1777z
	 M 1701.044,1479.776c-18.432-24.948-165.008-212.836-488.404-344.868c 20.356-41.664, 39.868-84.036, 58.032-126.688
	c 6.432-15.12, 12.708-30.168, 18.836-45.14c 291.036,36.596, 580.208-22.056, 609.052-28.156C 1896.624,1141.372, 1822.86,1330.944, 1701.044,1479.776z" data-tags="dribbble, social" />
<glyph unicode="&#x27;" d="M 128,1568L 1920,1568L 1920,1184L 128,1184zM 128,1056L 1920,1056L 1920,672L 128,672zM 128,544L 1920,544L 1920,160L 128,160z" data-tags="menu, list, items, lines, options" />
<glyph unicode="&#x28;" d="M 1279.040,156.8l 450.112,205.696L 1729.152,1699.2 l-450.112-205.632L 1279.040,156.8 z M 768.96,362.496l 446.72-185.152
	L 1215.68,1514.112 l-446.72,185.088L 768.96,362.496 z M 254.784,1493.568L 254.784,156.8 l 450.752,185.088L 705.536,1678.656 L 254.784,1493.568z" data-tags="map, location, address" />
<glyph unicode="&#x29;" d="M 256,1568l0-1408 l 1408,0 L 1664,1568 L 256,1568 z M 512,288L 384,288 l0,128 l 128,0 L 512,288 z M 512,480L 384,480 l0,128 l 128,0 L 512,480 z M 512,672L 384,672 l0,128 l 128,0 L 512,672 z M 512,928L 384,928 l0,128 
			l 128,0 L 512,928 z M 512,1120L 384,1120 l0,128 l 128,0 L 512,1120 z M 512,1312L 384,1312 L 384,1440 l 128,0 L 512,1312 z M 1280,288L 640,288 l0,512 l 640,0 L 1280,288 z M 1280,928L 640,928 L 640,1440 l 640,0 L 1280,928 z M 1536,288l-128,0 l0,128 l 128,0 L 1536,288 z M 1536,480l-128,0 l0,128 l 128,0 L 1536,480 z M 1536,672l-128,0 
			l0,128 l 128,0 L 1536,672 z M 1536,928l-128,0 l0,128 l 128,0 L 1536,928 z M 1536,1120l-128,0 l0,128 l 128,0 L 1536,1120 z M 1536,1312l-128,0 L 1408,1440 l 128,0 L 1536,1312 z" data-tags="film, video, movie" />
<glyph unicode="&#x2a;" d="M 1344,1568L 704,1824L0,1568l0-1536 l 704,256l 640-256l 704,256L 2048,1824 L 1344,1568z M 768,1660.54l 512-204.8l0-1260.276 l-512,204.796L 768,1660.54 z M 128,1478.344
	l 512,186.18l0-1263.6 L 128,214.748L 128,1478.344 z M 1920,377.656l-512-186.184l0,1263.6 l 512,186.18L 1920,377.656 z" data-tags="map, location, guide" />
<glyph unicode="&#x2b;" d="M 1792,1696L 256,1696 C 185.28,1696, 128,1638.656, 128,1568l0-1280 c0-70.656, 57.28-128, 128-128l 1536,0 c 70.656,0, 128,57.344, 128,128L 1920,1568 
			C 1920,1638.656, 1862.656,1696, 1792,1696z M 739.968,1600c 35.328,0, 63.936-28.672, 63.936-64s-28.608-64-63.936-64c-35.392,0-64,28.672-64,64S 704.64,1600, 739.968,1600z
			 M 544,1600c 35.328,0, 64-28.672, 64-64s-28.672-64-64-64c-35.392,0-64,28.672-64,64S 508.608,1600, 544,1600z M 351.936,1600c 35.392,0, 64-28.672, 64-64
			s-28.608-64-64-64C 316.608,1472, 288,1500.672, 288,1536S 316.608,1600, 351.936,1600z M 1792,288L 256,288 L 256,1374.656 l 1536,0 L 1792,288 z M 1792,1502.656L 896,1502.656 l0,64 l 896,0 L 1792,1502.656 z" data-tags="window, desktop, program" />
<glyph unicode="&#x2c;" d="M 1763.52,1413.12c-86.72-105.408-324.48-396.48-513.344-627.84l-239.808,243.456
	c 216.896,193.024, 485.376,431.616, 582.4,517.056c 172.608,152.128, 323.968,242.624, 356.864,205.632C 1970.24,1730.944, 1915.52,1598.080, 1763.52,1413.12z M 1208.256,734.080
	c-73.152-89.536-136.128-166.656-174.656-213.952l-283.904,276.672c 46.016,40.96, 122.624,109.12, 211.456,188.096L 1208.256,734.080z M 991.296,468.288l0,0.768 
	c-164.8-632.32-897.152-268.8-897.152-268.8s 307.264-38.72, 307.264,247.872c0,277.824, 282.368,302.912, 299.712,304.192l 290.752-283.328
	C 991.872,468.928, 991.296,468.288, 991.296,468.288z" data-tags="brush, painting, art, drawing" />
<glyph unicode="&#x2d;" d="M 1919.872,147.392c-269.568,0-488.128,218.496-488.128,488.128c0,197.76, 117.888,367.68, 286.976,444.352
	l-64.896,146.112l 10.56-25.536l-444.416-596.544l0-119.616 l 65.088,0 l0-65.152 l-65.088,0 l-65.088,0 l-65.152,0 l0,65.152 l 65.152,0 l0,65.152 l-184.128,17.28
	c-33.536-236.864-236.544-419.264-482.688-419.264C 218.496,147.392,0,365.888,0,635.52c0,269.568, 218.496,488.064, 488.128,488.064
	c 70.464,0, 137.28-15.232, 197.76-42.048l 121.984,306.432l-55.36,154.624c-24.32,0-46.976,0-65.088,0c-61.056,0-44.736,65.088-44.736,65.088
	s 4.032,56.96, 48.832,56.96s 44.736-40.704, 117.952-40.704c 70.080,0, 170.816-20.288, 170.816-20.288s 44.736-60.992-40.64-60.992c-38.656,0-81.216,0-122.048,0
	l 46.272-166.208l 707.328,0 l-55.552,126.272l-43.2,0 L 1472.448,1567.744 l 260.288,0 l0-65.088 l-147.072,0 l 190.528-400.64c 45.44,14.016, 93.76,21.568, 143.744,21.568
	c 269.568,0, 488.128-218.496, 488.128-488.064C 2408,365.888, 2189.44,147.392, 1919.872,147.392z M 488.128,1058.56c-233.664,0-423.040-189.376-423.040-423.040
	s 189.376-422.976, 423.040-422.976c 212.416,0, 387.84,156.736, 417.92,360.896l-338.816,34.88c-5.376-30.528-30.784-54.144-62.848-54.144
	c-35.968,0-65.088,29.12-65.088,65.152c0,35.904, 29.12,65.152, 65.088,65.152c 7.68,0, 14.848-1.984, 21.696-4.48l 135.744,341.12
	C 608.768,1044.928, 550.080,1058.56, 488.128,1058.56z M 585.728,664l 325.056-34.368c 0.064,1.984, 0.32,3.904, 0.32,5.888
	c0,150.4-78.656,282.112-196.928,357.184L 585.728,664z M 836.928,1306.752l-98.752-252.672c 142.4-85.248, 238.016-240.576, 238.016-418.624
	c0-4.224-0.512-8.512-0.64-12.736l 110.464-11.648L 836.928,1306.752z M 1598.592,1350.656l0-39.296 l-711.68,0 l 259.2-693.696l 491.968,644.16L 1598.592,1350.656z
	 M 1919.872,1058.56c-40.768,0-80.064-6.080-117.376-16.896l 151.936-347.136c 30.848-4.992, 54.912-30.72, 54.912-62.976c0-35.968-29.12-65.152-65.088-65.152
	s-65.152,29.12-65.152,65.152c0,17.472, 7.104,33.344, 18.496,45.12l-152.576,343.808c-146.368-66.56-248.256-213.632-248.256-384.896
	c0-233.6, 189.376-422.976, 422.976-422.976s 422.976,189.376, 422.976,422.976S 2153.472,1058.56, 1919.872,1058.56z" horiz-adv-x="2400" data-tags="bike, bicycle, travel, ride" />
<glyph unicode="&#x2e;" d="M 988.928,1759.616L 133.76,1391.168l 856-365.568L 1854.592,1392L 988.928,1759.616z M 1024,979.584
			l0-883.2 l 831.68,394.816L 1855.68,1332.864 L 1024,979.584z M 128.32,491.2l 834.496-394.816l0,883.2 L 128.32,1332.864L 128.32,491.2 z" data-tags="cube, 3d, box" />
<glyph unicode="&#x2f;" d="M 1918.384,1186.208c-0.372,5.692-3.108,9.272-8.616,10.688c-3.884,0.996-7.732,2.092-11.652,2.7
	c-55.924,8.784-111.92,17.36-168.416,21.276c-45.12,3.14-90.304,5.132-135.528,7.16c-87.032,3.9-173.888,1.992-260.444-8.948
	c-52.888-6.688-105.232-16.26-156.092-32.688c-25.7-8.308-50.96-18-76.696-26.172c-40.156-12.716-81.364-18.44-123.040-10.62
	c-25.056,4.708-49.776,11.872-74.076,19.74c-43.968,14.216-87.908,28.236-133.516,36.624c-88.684,16.38-178.044,23.892-261.356,23
	c-67.916-0.1-128.92-2.416-189.66-9.708c-49.812-5.976-99.556-12.632-149.3-19.384c-10.572-1.452-20.904-4.56-31.256-7.292
	c-5.54-1.452-9.2-5.132-9.388-11.296c-0.96-29.38-1.976-58.748-2.716-88.16c-0.1-4.424, 0.98-8.88, 1.656-13.304
	c 0.556-3.728, 2.6-6.316, 6.18-7.884c 3.8-1.656, 7.7-3.328, 11.076-5.656c 16.328-11.38, 24.2-28.608, 30.46-46.484
	c 4.46-12.784, 7.348-26.088, 11.040-39.124c 2.296-8.12, 5.336-16.056, 7.176-24.264c 8.628-38.356, 16.648-76.888, 25.48-115.188
	c 8.428-36.544, 19.404-72.272, 36.88-105.708c 19.52-37.352, 47.348-65.956, 86.84-82.4c 23.912-9.964, 48.78-16.312, 74.28-20.364
	c 45.692-7.224, 91.656-8.104, 137.752-4.76c 46.672,3.376, 92.752,10.436, 137.652,24.012c 33.332,10.1, 64.84,24.148, 91.588,46.908
	c 40.828,34.816, 73.708,76.152, 98.952,123.568c 25.228,47.348, 42.92,97.696, 58.796,148.736c 4.576,14.656, 8.88,29.396, 14.184,43.784
	c 7.832,21.192, 23.016,34.292, 45.624,37.772c 7.192,1.116, 14.656,1.416, 21.952,0.996c 16.96-0.996, 33.276-4.576, 44.584-18.744
	c 4.932-6.164, 9.492-12.988, 12.664-20.196c 6.184-14.032, 12.056-28.284, 16.648-42.876c 19.924-63.092, 46.368-123.208, 79.804-180.312
	c 27.724-47.452, 64.3-85.78, 112.792-112.22c 34.276-18.708, 70.952-30.628, 109.148-38.060c 57.444-11.144, 115.464-13.88, 173.788-11.312
	c 35.26,1.52, 70.108,6.012, 104.016,16.14c 34.788,10.436, 65.38,27.388, 88.244,56.432c 14.792,18.744, 25.768,39.648, 34.788,61.632
	c 19.012,46.336, 31.236,94.66, 42.28,143.36c 5.404,23.816, 10.976,47.608, 16.788,71.348c 3.040,12.412, 6.856,24.604, 10.3,36.892
	c 3.208,11.516, 5.944,23.204, 13.236,33.164c 7.328,10.012, 14.828,19.824, 27.052,24.164c 5.336,1.908, 8.040,5.62, 9.188,10.688
	c 0.876,3.92, 1.824,7.904, 1.824,11.836c 0.036,17.576, 0.036,35.156-0.472,52.7C 1920.476,1161.032, 1919.16,1173.596, 1918.384,1186.208
	 M 201.712,1130.572c-19.012,0-34.412,3.784-34.412,8.444c0,4.696, 15.4,8.476, 34.412,8.476c 18.98,0, 34.364-3.784, 34.364-8.476
	C 236.076,1134.356, 220.688,1130.572, 201.712,1130.572 M 866.312,944.692c-12.056-51.308-31.928-99.396-58.544-144.82
	c-14.524-24.82-31-48.056-51.904-67.98c-27.592-26.34-60.804-41.876-97.264-51.432c-73.808-19.316-148.456-24.148-223.968-12.832
	c-14.792,2.228-29.384,6.112-43.94,9.796c-29.972,7.7-52.716,25.16-70.008,50.892c-19.128,28.504-30.868,59.808-38.736,92.872
	c-10.268,43.16-16.044,87.032-20.396,131.128c-2.548,25.584-2.060,51.060, 1.1,76.508c 1.588,12.8, 2.616,25.8, 5.524,38.328
	c 10.268,44.58, 37.824,72.98, 82.128,84.596c 40.492,10.604, 81.744,16.852, 123.384,20.228c 30.884,2.532, 61.852,3.816, 81.844,4.984
	c 71.072-0.896, 130.748-5.42, 189.456-18.96c 23.98-5.488, 48.26-10.436, 70.196-22.12c 10.788-5.74, 21.26-12.56, 30.68-20.328
	c 15.552-12.816, 23.488-30.292, 26.816-50.048C 879.588,1024.732, 875.648,984.56, 866.312,944.692 M 1785.932,963.724
	c-1.552-61.964-11.992-122.448-34.076-180.6c-8.912-23.54-21.040-45.288-39.276-62.952c-20.328-19.724-45.624-30.16-72.508-37.452
	c-33.776-9.152-68.32-11.348-103.104-11.652c-52.516-0.472-104.252,6.080-155.552,16.988c-50.824,10.804-91.352,37.416-123.604,77.708
	c-41.336,51.672-67.812,110.296-82.64,174.468c-6.856,29.652-12.632,59.488-11.888,90.104c 0.34,13.168, 1.688,26.476, 4.088,39.464
	c 5.908,32.352, 25.768,53.48, 55.688,65.636c 30.056,12.156, 61.496,19.584, 93.208,25.868c 35.292,7.008, 70.884,12.244, 106.788,14.556
	c 28.032,1.824, 56.128,2.584, 75.14,3.412c 75.208-3.68, 140.96-9.22, 204.888-27.456c 11.752-3.344, 23-8.696, 34.108-13.912
	c 10.54-4.932, 18.64-13.004, 23.876-23.456c 5.776-11.568, 11.716-23.132, 16.276-35.172c 5.336-14.12, 6.516-29.244, 7.092-44.224
	C 1785.356,1011.276, 1786.54,987.464, 1785.932,963.724 M 1845.268,1130.572c-18.98,0-34.38,3.784-34.38,8.444
	c0,4.696, 15.4,8.476, 34.38,8.476s 34.38-3.784, 34.38-8.476C 1879.644,1134.356, 1864.248,1130.572, 1845.268,1130.572" data-tags="matt-hakes-spectacles" />
<glyph unicode="&#x30;" d="M 1490.028,80.28l-46.84,17.308L 1443.188,1480.676 l 32.584,0 l0,114.556 l-32.584,0 l0,43.024 l-46.84,0 l0,30.292 L 1089.844,1668.548 l0,21.512 l-11.524,0 L 1078.32,1781.708 
		l 3.948,0 l 11.392,0 l0,10.696 l-14.828,0 c-8.912,18.708-30.044,31.564-54.736,31.564c-25.076,0-46.076-12.86-54.988-31.564l-15.020,0 l0-10.696 l 11.456,0 
		l 3.82,0 l0-91.648 l-11.2,0 l0-21.512 l-306.76,0 l0-30.292 l-46.712,0 l0-43.024 l-31.692,0 l0-114.556 l 31.692,0 l0-1383.088 l-46.968-17.308l0,0l0-48.24 l 932.564,0 
		l0,48.24 L 1490.028,80.28 z M 870.208,1559.592l 6.492,0 l0-43.788 l-6.492,0 L 870.208,1559.592 z M 841.44,1559.592l 6.24,0 l0-38.184 l 19.856,0 l0-5.604 L 841.44,1515.804 L 841.44,1559.592 z
		 M 766.976,1534.9l0-19.092 l-6.24,0 L 760.74,1559.72 l 13.876,0 c 4.072,0, 7.636-1.144, 9.928-3.44c 2.544-2.288, 3.688-5.34, 3.688-9.040
		c0-2.416-0.508-4.832-1.908-7c-1.272-1.908-3.052-3.312-5.092-4.072c-2.292-1.020-5.344-1.276-9.544-1.276L 766.976,1534.896 z
		 M 825.908,1131.656l-48.368,0 l0,96.864 l 48.368,0 L 825.908,1131.656 z M 825.908,1249.144l-48.368,0 l0,96.608 l 48.368,0 L 825.908,1249.144 z M 829.604,1521.54
		c-4.58-4.2-10.436-6.364-17.312-6.364c-6.62,0-12.088,2.164-16.544,6.364c-4.332,4.324-6.62,9.668-6.62,16.040
		c0,6.488, 2.292,12.088, 6.62,16.292c 4.452,4.2, 10.056,6.364, 16.8,6.364c 7,0, 12.6-2.164, 17.052-6.364
		c 4.58-4.2, 6.876-9.548, 6.876-16.164C 836.476,1531.208, 834.188,1525.864, 829.604,1521.54z M 885.228,1131.656l-48.368,0 l0,96.864 l 48.368,0 
		L 885.228,1131.656 z M 885.228,1249.144l-48.368,0 l0,96.608 l 48.368,0 L 885.228,1249.144 z M 884.972,1526.244c-1.908,3.56-3.18,7.384-3.18,11.332
		c0,6.364, 2.292,11.708, 7.128,16.036c 4.324,4.46, 9.928,6.62, 16.8,6.62c 4.58,0, 9.672-1.144, 15.272-3.696l0-6.616 
		c-5.092,2.928-10.184,4.324-15.024,4.324c-4.96,0-9.292-1.524-12.472-4.832c-3.564-3.052-5.088-7-5.088-11.832
		c0-4.836, 1.528-8.788, 4.832-11.844c 3.436-3.052, 7.636-4.708, 12.728-4.708c 5.348,0, 10.44,1.652, 15.528,4.832l0-7 
		c-4.58-2.292-9.928-3.688-16.040-3.688c-4.832,0-8.908,1.020-12.472,2.928C 889.684,1520.136, 886.884,1522.936, 884.972,1526.244z
		 M 944.416,1131.656l-48.368,0 l0,96.864 l 48.368,0 L 944.416,1131.656 z M 944.416,1249.144l-48.368,0 l0,96.608 l 48.368,0 L 944.416,1249.144 z M 952.052,1515.804l-25.456,0 
		l0,43.788 l 24.82,0 l0-5.596 l-18.456,0 l0-13.492 l 17.82,0 l0-5.604 l-17.82,0 l0-13.488 l 19.096,0 L 952.052,1515.804 z M 1206.184,1553.868c 4.324,4.2, 10.184,6.364, 16.796,6.364
		c 6.872,0, 12.476-2.164, 16.804-6.364c 4.58-4.2, 6.872-9.548, 6.872-16.164c0-6.492-2.292-11.844-6.872-16.168
		c-4.328-4.2-10.184-6.364-17.060-6.364c-6.616,0-12.216,2.164-16.544,6.364c-4.588,4.324-6.62,9.668-6.62,16.040
		C 1199.56,1544.064, 1201.856,1549.664, 1206.184,1553.868z M 1167.992,1559.592l 11.46,0 c 3.56,0, 6.616-0.508, 8.652-1.396
		c 1.788-1.144, 3.312-2.164, 4.584-3.952c 1.020-1.78, 1.528-3.56, 1.528-5.984c0-4.324-2.288-7.508-6.872-9.292
		c 3.312-0.636, 6.112-1.908, 7.888-4.072c 1.788-1.908, 2.804-4.324, 2.804-7.252c0-2.164-0.512-4.2-1.788-5.86
		c-1.272-1.908-2.8-3.18-5.092-4.452c-2.288-1.144-5.092-1.532-8.148-1.532l-15.020,0 L 1167.992,1559.592 z M 1101.040,1557.052
		c 3.052,2.036, 6.616,3.052, 10.944,3.052c 3.052,0, 6.112-0.512, 9.676-1.66l0-2.928 c-3.052,1.020-6.62,1.78-9.676,1.78
		c-3.056,0-5.856-0.764-7.888-2.036c-2.036-1.652-3.052-3.56-3.052-5.596c0-2.42, 1.020-4.072, 3.052-5.604
		c 2.036-1.396, 4.832-2.156, 7.888-2.156c 3.564,0, 6.62,0.764, 9.928,2.416l0-3.312 c-2.8-1.020-6.112-1.78-9.928-1.78
		c-3.312,0-5.856,0.512-8.148,1.276c-2.036,1.020-3.82,2.292-5.092,3.816c-1.276,1.532-2.036,3.312-2.036,5.348
		C 1096.712,1552.464, 1098.244,1555.016, 1101.040,1557.052z M 1106.136,1518.1l0-2.668 l-16.808,0 l0,20.488 l 4.332,0 l0-17.816 L 1106.136,1518.104 z M 1087.612,1559.852
		l 4.008,0 l0-20.364 l-4.008,0 L 1087.612,1559.852 z M 1085.96,1518.1l0-2.668 l-16.804,0 l0,20.488 l 4.072,0 l0-17.816 L 1085.96,1518.104 z M 1083.924,1542.028l0-2.54 l-16.292,0 l0,20.364 
		l 3.816,0 l0-17.824 L 1083.924,1542.028 z M 980.308,1781.708l 87.324,0 l0-91.648 l-87.324,0 L 980.312,1781.708 z M 1061.768,1548.392c 1.276-0.892, 1.788-2.036, 1.788-3.312
		c0-1.14-0.26-2.036-1.020-2.928c-0.768-0.892-1.912-1.652-3.312-1.908c-1.276-0.508-3.312-0.764-5.216-0.764l-9.68,0 l0,20.364 l 7.512,0 
		c 2.292,0, 4.072-0.256, 5.348-0.636c 1.276-0.512, 2.292-1.144, 2.928-1.916c 0.508-0.764, 0.892-1.524, 0.892-2.668
		c0-2.164-1.276-3.44-4.072-4.46C 1059.1,1549.924, 1060.504,1549.412, 1061.768,1548.392z M 1001.184,1548.264l-3.052,0 l0-8.78 l-3.82,0 l0,20.364 
		l 8.908,0 c 2.544,0, 4.584-0.384, 6.492-1.532c 1.4-1.268, 2.164-2.54, 2.164-4.192c0-1.276-0.38-2.42-1.144-3.184
		c-0.636-0.768-1.908-1.532-3.436-2.036C 1005.896,1548.52, 1003.984,1548.264, 1001.184,1548.264z M 1035.808,1517.080
		c-2.8-1.276-6.112-1.908-9.804-1.908c-3.436,0-5.98,0.508-8.020,1.396c-2.292,1.020-4.072,2.292-5.092,3.824
		c-1.396,1.652-2.164,3.304-2.164,5.216c0,2.928, 1.656,5.468, 4.46,7.508c 3.052,2.036, 6.492,3.052, 10.816,3.052
		c 2.932,0, 6.236-0.508, 9.804-1.524l0-3.312 c-3.312,1.4-6.624,2.036-9.68,2.036c-3.308,0-5.852-0.764-7.888-2.164
		c-2.164-1.652-3.312-3.44-3.312-5.596c0-2.164, 1.144-4.072, 3.312-5.604c 2.036-1.4, 4.584-1.908, 7.888-1.908
		c 3.312,0, 6.492,0.508, 9.68,2.164L 1035.808,1517.080 z M 1037.332,1542.792c-0.376-0.64-1.020-1.144-1.78-1.532
		c-2.292-1.276-5.092-2.036-8.652-2.036c-3.564,0-6.368,0.764-8.656,2.036c-0.892,0.384-1.528,0.892-1.912,1.532
		c-0.252,0.376-0.636,1.144-1.020,2.036c-0.38,0.764-0.38,1.78-0.38,3.432l0,11.588 l 4.072,0 l0-11.588 c0-1.908,0-3.18, 0.764-3.948
		c 0.764-0.764, 1.652-1.396, 2.668-1.908c 1.4-0.384, 2.672-0.636, 4.46-0.636c 2.288,0, 4.324,0.38, 5.724,1.396
		c 0.764,0.384, 1.4,1.144, 1.908,1.66c 0.256,0.764, 0.256,1.78, 0.256,3.432l0,11.588 l 4.072,0 l0-11.588 c0-1.652-0.128-2.668-0.516-3.432
		C 1037.972,1543.94, 1037.844,1543.172, 1037.332,1542.792z M 1043.064,1515.428l-4.2,0 l 11.96,20.616l 2.928,0 l 12.348-20.616l-4.072,0 l-3.56,6.112
		l-11.972,0 L 1043.064,1515.428z M 1066.356,940.984l0-78.92 l-10.824,0 l0,78.92 L 1066.356,940.984 z M 1072.72,745.092c-9.424,0-17.192,7.76-17.192,17.052
		c0,9.42, 7.768,16.932, 17.192,16.932c 9.284,0, 17.12-7.512, 17.12-16.932C 1089.844,752.856, 1082.008,745.092, 1072.72,745.092z
		 M 1151.956,1131.656l-48.116,0 l0,96.864 l 48.116,0 L 1151.956,1131.656 z M 1151.956,1249.144l-48.116,0 l0,96.608 l 48.116,0 L 1151.956,1249.144 z M 1211.020,1131.656l-48.116,0 
		l0,96.864 l 48.116,0 L 1211.020,1131.656 z M 1211.020,1249.144l-48.116,0 l0,96.608 l 48.116,0 L 1211.020,1249.144 z M 1270.336,1131.656l-48.372,0 l0,96.864 l 48.372,0 L 1270.336,1131.656 z
		 M 1270.336,1249.144l-48.372,0 l0,96.608 l 48.372,0 L 1270.336,1249.144 z M 1279.748,1515.804l-15.020,18.328l-15.020-18.328l-7.64,0 l 18.584,22.66l-17.312,21.128
		l 7.64,0 l 13.744-16.796l 13.752,16.796l 7.636,0 l-17.568-21.128l 18.84-22.66L 1279.748,1515.804 zM 1190.396,1524.712c 0.764,1.020, 1.020,2.292, 1.020,3.568s-0.256,2.54-1.020,3.82c-0.764,1.020-2.036,1.78-3.56,2.292
		c-1.276,0.636-3.564,0.892-6.876,0.892l-5.856,0 l0-13.872 l 6.364,0 c 3.312,0, 5.596,0.252, 7.128,0.764
		C 1188.616,1522.676, 1189.632,1523.576, 1190.396,1524.712zM 1222.98,1521.028c 5.092,0, 9.164,1.652, 12.476,4.832c 3.052,3.18, 4.832,7.128, 4.832,11.972c0,4.58-1.78,8.524-4.832,11.832
		c-3.312,3.052-7.384,4.58-12.22,4.58c-4.832,0-9.164-1.524-12.216-4.58c-3.312-3.312-5.092-7.256-5.092-12.088
		c0-4.716, 1.784-8.788, 5.092-11.844C 1214.072,1522.676, 1218.144,1521.028, 1222.98,1521.028zM 1185.56,1542.792c 1.524,1.268, 2.036,2.8, 2.036,4.96c0,4.2-2.548,6.24-7.888,6.24l-5.604,0 l0-13.236 l 4.328,0 
		C 1181.744,1540.756, 1184.284,1541.52, 1185.56,1542.792zM 812.804,1554.244c-4.836,0-9.040-1.524-12.22-4.708c-3.308-3.18-4.832-7.128-4.832-11.96c0-4.716, 1.528-8.788, 4.832-11.844
		c 3.312-3.176, 7.128-4.708, 12.22-4.708c 4.84,0, 8.784,1.532, 12.22,4.832c 3.312,3.18, 4.84,7.128, 4.84,11.972
		c0,4.58-1.528,8.524-4.84,11.708C 821.584,1552.72, 817.64,1554.244, 812.804,1554.244zM 998.26,1557.3l0-6.36 l 4.452,0 c 1.656,0, 2.928,0.252, 3.564,0.764c 1.020,0.636, 1.528,1.4, 1.528,2.54
		c0,2.036-1.908,3.052-5.344,3.052L 998.26,1557.296 zM 773.344,1554.124l-6.364,0 l0-13.62 l 6.876,0 c 2.42,0, 4.58,0.508, 5.856,1.652c 1.4,1.276, 2.036,2.928, 2.036,5.216
		C 781.744,1551.704, 778.944,1554.124, 773.344,1554.124zM 1048.532,1557.176l0-6.112 l 2.548,0 c 2.164,0, 3.56,0.38, 4.452,1.020c 1.144,0.508, 1.4,1.396, 1.4,2.156
		c0,2.036-1.78,2.936-5.092,2.936L 1048.532,1557.176 zM 1052.104,1548.52l-3.568,0 l0-6.492 l 3.824,0 c 2.416,0, 3.56,0.128, 4.324,0.384c 1.020,0.256, 1.532,0.636, 2.036,1.144
		c 0.512,0.508, 0.768,1.276, 0.768,1.78c0,0.512-0.256,1.020-0.768,1.532c-0.508,0.636-1.272,1.020-2.036,1.268
		C 1055.532,1548.392, 1054.136,1548.52, 1052.104,1548.52zM 1048.028,1524.080L 1056.68,1524.080L 1052.104,1531.592 	z" data-tags="michael-howarth-tardis" />
<glyph unicode="&#x31;" d="M 130.396,1575.092l0-1294.184 l 1787.212,0 L 1917.604,1575.092 L 130.396,1575.092 z M 1855.98,342.536L 192.020,342.536 L 192.020,1513.464 l 1663.956,0 L 1855.976,342.536 zM 585.624,1215.556L 407.72,1297.764L 407.72,1261.172L 549.996,1199.668L 549.996,1198.824L 407.72,1137.316L 407.72,1100.604L 585.624,1182.936 	z" data-tags="samuel-sosina-command-line" />
<glyph unicode="&#x32;" d="M 1259.152,748.7c 19.672,91.548, 30.816,196.212, 30.816,307.4c0,220.968-38.928,392.084-106.284,539.952
	c-42.196,92.64-98.652,228.1-154.028,228.1c-54.84,0-113.708-137.008-155.66-228.1c-68.044-147.704-104.644-317.652-104.644-539.952
	c0-106.268, 10.192-206.58, 28.248-295.172l-198.012-276.368l0-452.704 l 271.6,282.944l 22.656,0 l0-56.584 l 260.312,0 l0,56.584 l 22.656,0 
	l 271.6-282.944L 1448.408,484.556 L 1259.152,748.7z M 1029.656,835.404c-56.256,0-101.86,45.6-101.86,101.86
	c0,56.256, 45.604,101.86, 101.86,101.86c 56.26,0, 101.86-45.604, 101.86-101.86C 1131.516,881.004, 1085.912,835.404, 1029.656,835.404z
	 M 1029.656,1163.616c-56.256,0-101.86,45.6-101.86,101.86c0,56.252, 45.604,101.86, 101.86,101.86c 56.26,0, 101.86-45.608, 101.86-101.86
	C 1131.516,1209.216, 1085.912,1163.616, 1029.656,1163.616z" data-tags="aleks-dorohovich-rocket" />
<glyph unicode="&#x33;" d="M 1279.54,1709.908l-97.196-168.4l 224.432-129.6l 97.2,168.408L 1279.54,1709.908z M 1117.548,1429.292
			L 631.56,587.588l 224.432-129.592L 1341.98,1299.7L 1117.548,1429.292z M 1381.632,1800.616l 149.844-86.572
			c 83.364-48.092, 111.040-153.128, 63.452-235.568l-75.932-131.36l-64.796-112.22L 903.412,280.812L 564.904,57.396
			c-81.92-54.008-140.48-18.052-134.656,77.788l 24.296,404.824l 550.788,954.080l 64.796,112.22l 75.768,131.372
			C 1193.648,1820.108, 1298.944,1848.288, 1381.632,1800.616z M 549.38,185.972l 241.816,159.636l-224.436,129.6L 549.38,185.972z" data-tags="cole-townsend-pencil" />
<glyph unicode="&#x34;" d="M 2018.752,1941.76C 2008.128,1948.608, 1996.032,1952, 1984,1952c-12.352,0-24.768-3.52-35.52-10.752l-1920-1280
	c-19.776-13.12-30.656-36.224-28.096-59.904c 2.432-23.616, 17.792-44.032, 39.872-52.736l 500.736-200.384l 235.456-412.032
	c 11.264-19.776, 32.192-32, 54.848-32.256c 0.256,0, 0.448,0, 0.704,0c 22.464,0, 43.328,11.904, 54.848,31.104l 132.928,221.632l 620.48-248.128
	C 1647.872-94.528, 1655.872-96, 1664-96c 10.88,0, 21.632,2.752, 31.36,8.256c 16.896,9.472, 28.48,26.112, 31.744,45.248l 320,1920
	C 2051.264,1902.656, 2040.128,1927.872, 2018.752,1941.76z M 200.704,622.272L 1683.904,1611.136L 605.504,456.768c-5.696,3.392-10.752,7.872-17.024,10.368
	L 200.704,622.272z M 652.096,411.776c-0.128,0.256-0.32,0.384-0.448,0.64L 1864,1710.016L 830.464,99.648L 652.096,411.776z M 1613.888,57.024
	l-546.624,218.624c-12.992,5.12-26.496,6.848-39.872,7.616L 1869.12,1588.096L 1613.888,57.024z" data-tags="paperplane, send, flight, email" />
<glyph unicode="&#x35;" d="M 1642.944,468.7l0,2.336 c0,135.648-186.048,243.336-453.216,275.064L 1189.728,1047.876 
		c 142.724,62.98, 242.392,205.628, 242.392,371.64c0,224.308-181.856,406.124-406.2,406.124
		c-224.3,0-406.128-181.82-406.128-406.124c0-166.032, 99.676-308.688, 242.396-371.664l0-301.268 
		c-263.756-30.448-449.376-134.74-456.984-267.104l-0.432,0 l 0.016-8.116c0-0.112-0.016-0.216-0.016-0.328l 0.016,0 l 0.192-88.62
		l 0.684-75.212l 0.096-2.504c 11.216-156.404, 276.92-274.348, 618.056-274.348c 352.972,0, 619.14,122.384, 619.14,284.676l 0.032,9.46
		C 1643.38,431.54, 1643.268,459.596, 1642.944,468.7 M 743.412,1524.152c-30.424,30.412-17.044,93.084, 29.8,139.932
		c 46.88,46.888, 109.512,60.228, 139.924,29.788c 30.44-30.4, 17.064-93.032-29.82-139.924
		C 836.468,1507.108, 773.836,1493.756, 743.412,1524.152 M 1025.916,1013.396c 28.692,0, 56.672,3.012, 83.672,8.668l0-535 l-0.112-10.852
		c-8.56-7.552-38.864-19.712-83.56-19.712c-44.7,0-74.976,12.18-83.5,19.728l-0.096,545.816
		C 969.316,1016.404, 997.26,1013.396, 1025.916,1013.396 M 484.912,471.284c 0.312,79.22, 149.016,165.7, 377.268,194.376l0-57.38 
		c-154.44-21.764-263.22-73.724-263.22-134.436c0-80.364, 190.196-145.456, 424.84-145.456c 234.724,0, 424.904,65.092, 424.904,145.456
		c0,60.156-106.76,111.744-258.984,133.86l0,57.392 c 226.116-29.236, 373.080-115.272, 373.080-194.060l0-2.896 l 0.016-0.352
		c-4.556-115.288-249.42-212.076-538.94-212.076c-291.128,0-537.168,97.896-538.96,214.064L 484.912,471.284z M 1562.84,324.796
		l-0.032-9.768c0-96.74-221.36-204.544-539-204.544c-146.384,0-284.16,23.512-387.92,66.2
		c-90.012,37.032-145.996,86.536-150.116,132.644l-0.6,66.42c 84.008-94.676, 290.772-160.108, 538.712-160.108
		c 248.296,0, 455.3,65.592, 539.112,160.464C 1562.964,361.464, 1562.916,344.492, 1562.84,324.796" data-tags="danis-lou-joystick" />
<glyph unicode="&#x36;" d="M 1024,1824c-370.564,0-672-301.436-672-672c0-141.176, 43.916-276.608, 126.848-391.78l 17.636-24.716l 482.724-681.080
	C 989.792,40.312, 1006.42,32, 1024,32c 17.58,0, 34.208,8.312, 44.788,22.42L 1545.5,727.404L 1569.020,760
	C 1652.088,875.392, 1696,1010.828, 1696,1152C 1696,1522.564, 1394.56,1824, 1024,1824z M 1024,928c-123.54,0-224,100.46-224,224s 100.46,224, 224,224
	c 123.54,0, 224-100.46, 224-224S 1147.54,928, 1024,928z" data-tags="designmodo-location" />
<glyph unicode="&#x37;" d="M 2048,736L 1664,1120L 1664,1696L 1408,1696L 1408,1376L 1024,1760L0,736L0,672L 256,672L 256,32L 896,32L 896,416L 1152,416L 1152,32L 1792,32L 1792,672L 2048,672 z" data-tags="home, house, building" />
<glyph unicode="&#x38;" d="M 304.776,1854.956L 236.056,1511.104L 1635.552,1511.104L 1591.784,1288.996L 191.408,1288.996L 123.624,945.2L 1522.992,945.2L 1444.956,553.072L 880.932,366.228L 392.132,553.072L 425.588,723.156L 81.792,723.156L0,310.452L 808.452,1.044L 1740.464,310.452L 2048,1854.956 z" data-tags="css3, w3c" />
<glyph unicode="&#x39;" d="M 1037.484,862.592 L 1273.544,232.708 C 1275.1,229.008 1277.008,225.608 1279.044,222.4 C 1199.22,195.036 1113.436,180 1024.008,180 C 948.62,180 875.864,190.76 807.032,210.476 L 1037.484,862.592 ZM 1792,928.012 C 1792,652.072 1638.448,411.152 1410.12,281.496 L 1644.692,942.040 C 1688.516,1048.748 1703.1,1134.080 1703.1,1209.94 C 1703.1,1237.484 1701.224,1263.036 1697.924,1286.856 C 1757.88,1180.332 1792,1058.072 1792,928.012 ZM 256,928.016 C 256,1036.464 279.888,1139.412 322.504,1232.428 L 688.86,254.86 C 432.644,376.080 256,631.964 256,928.016 ZM 382.328,1338.864 C 519.644,1541.908 755.696,1676 1024.016,1676 C 1223.952,1676 1406,1601.548 1542.632,1479.608 C 1539.32,1479.804 1536.092,1480.212 1532.68,1480.212 C 1457.24,1480.212 1403.708,1416.208 1403.708,1347.46 C 1403.708,1285.816 1440.232,1233.668 1479.148,1172.028 C 1508.348,1122.216 1542.456,1058.212 1542.456,965.744 C 1542.456,901.74 1517.184,827.444 1484.024,723.944 L 1407.4,474.68 L 1129.84,1278.716 C 1176.072,1281.072 1217.736,1285.816 1217.736,1285.816 C 1259.124,1290.592 1254.252,1349.824 1212.844,1347.46 C 1212.844,1347.46 1088.436,1337.956 1008.144,1337.956 C 932.676,1337.956 805.876,1347.46 805.876,1347.46 C 764.456,1349.82 759.596,1288.2 801,1285.816 C 801,1285.816 840.18,1281.084 881.556,1278.716 L 1001.2,959.416 L 833.112,468.504 L 553.444,1278.716 C 599.728,1281.080 641.348,1285.816 641.348,1285.816 C 682.696,1290.592 677.812,1349.824 636.432,1347.46 C 636.432,1347.46 512.060,1337.956 431.752,1337.956 C 417.34,1337.956 400.348,1338.3 382.328,1338.864 ZM 1704,1952L 344,1952 C 154.8,1952,0,1797.2,0,1608l0-1360 c0-189.2, 154.8-344, 344-344l 1360,0 c 189.2,0, 344,154.8, 344,344L 2048,1608 C 2048,1797.2, 1893.2,1952, 1704,1952z M 1920,928
		c0-494.848-401.152-896-896-896S 128,433.152, 128,928S 529.152,1824, 1024,1824S 1920,1422.848, 1920,928z" data-tags="wordpress, social, cms" />
<glyph unicode="&#x3a;" d="M 256,928L 768,1440L 512,1440L0,928L 512,416L 768,416 	zM 1536,1440L 1280,1440L 1792,928L 1280,416L 1536,416L 2048,928 	zM 1088,1696L 768,160L 960,160L 1280,1696 	z" data-tags="code, embed" />
<glyph unicode="&#x3c;" d="M 1111.168,899.968l 533.696-542.912C 1508.864,234.944, 1329.664,160, 1132.48,160
	c-424.128,0-768,343.872-768,768c0,424.128, 343.872,768, 768,768c 216.32,0, 411.392-89.728, 550.976-233.6L 1111.168,899.968z M 1163.136,1442.688
	c-52.992,0-95.936-43.008-95.936-96c0-53.056, 42.944-96, 95.936-96c 53.056,0, 96.064,42.944, 96.064,96C 1259.2,1399.68, 1216.192,1442.688, 1163.136,1442.688
	z" data-tags="pacman, game" />
<glyph unicode="&#x3b;" d="M 1536,160l0,128 l-1.6,0 C 1534.976,298.624, 1536,309.184, 1536,320L 1536,864 l0,160 
	C 1536,1324.416, 1292.416,1568, 992,1568S 448,1324.416, 448,1024L 448,864 l0-544 c0-10.816, 1.024-21.376, 1.6-32L 448,288 l0-128 c0,0-320,5.376-320,352c0,196.608, 102.848,283.328, 192,321.6
	L 320,1024 C 320,1395.136, 620.864,1696, 992,1696S 1664,1395.136, 1664,1024l0-190.4 c 89.152-38.336, 192-124.992, 192-321.6C 1856,165.376, 1536,160, 1536,160z M 576,160L 512,160 L 512,864 l 64,0 L 576,160 z M 1472,160
	l-64,0 L 1408,864 l 64,0 L 1472,160 z" data-tags="headphones, music, earphones" />
<glyph unicode="&#x3d;" d="M 1728,860.992l-320,128.192l0,256.512 l 320,128.256c 35.392,0, 64-28.736, 64-64.128l0-384.768 
	C 1792,889.664, 1763.392,860.992, 1728,860.992z M 1120,1309.888c-159.040,0-288,129.216-288,288.576c0,159.36, 128.96,288.576, 288,288.576S 1408,1757.824, 1408,1598.464
	C 1408,1439.040, 1279.040,1309.888, 1120,1309.888z M 544,1309.888c-159.040,0-288,129.216-288,288.576c0,159.36, 128.96,288.576, 288,288.576S 832,1757.824, 832,1598.464
	C 832,1439.040, 703.040,1309.888, 544,1309.888z M 1344,1309.888l0-577.152 l-357.248,0 c-3.328-53.248-26.624-99.136-61.248-125.12l 36.096,0 l 255.296-575.744L 1153.28,31.872 
	l-85.12,192l-170.24,0 L 897.92-96 l-63.808,0 l0,319.872 l-172.928,0 l-86.464-192L 511.040,31.872 l 259.328,575.744l 24.128,0 c-34.624,25.984-57.92,71.872-61.248,125.12L 320,732.736 l0,577.152 l 224,0 l 576,0 L 1344,1309.888 z
	 M 834.048,587.776c-2.624,0.64-5.056,1.984-7.616,2.88l-136.448-302.848l 144.064,0 L 834.048,587.776 z M 897.856,592.384l0-304.64 l 141.888,0 l-136.064,306.88
	C 901.824,593.728, 899.904,593.152, 897.856,592.384z" data-tags="camera, movie, video, record, film" />
<glyph unicode="&#x3e;" d="M 1600,1381.248L 445.12,1381.248 l 1.152,124.288l 92.224,0 l 195.328,192.448l 585.472,0 l 191.296-192.448l 92.224,0 L 1600,1381.248z
	 M 1122.816,1569.664l-192.512,0 l0-64.128 l 192.512,0 L 1122.816,1569.664 z M 1513.984,1056.384L 538.24,1056.384 l-24.96,256.64l 1026.56,0 L 1513.984,1056.384z M 1487.68,483.008L 561.344,483.008 l-48.064,509.248
	l 1026.56,0 L 1487.68,483.008z M 1423.552,158.144c0-35.392-28.736-64.128-64.192-64.128L 689.728,94.016 c-35.456,0-64.192,28.736-64.192,64.128l-25.344,260.672
	l 849.536,0 L 1423.552,158.144z" data-tags="drink" />
<glyph unicode="&#x3f;" d="M 1857.536,1536.064l-157.888-157.888l-225.472,225.472l 157.888,157.888
	c 62.272,62.272, 163.264,62.272, 225.472,0S 1919.808,1598.336, 1857.536,1536.064z M 1767.296,1355.712c 12.48,12.416, 32.704,12.416, 45.12,0
	c 12.48-12.48, 12.48-32.704,0-45.12l-586.24-586.304c-12.48-12.416-32.704-12.416-45.12,0s-12.416,32.64,0,45.056l 383.36,383.36l-315.776,315.776
	l 135.296,135.232l 315.712-315.712L 1767.296,1355.712z M 1248.704,1378.176l 225.472-225.472L 572.16,250.688L 346.688,476.16L 1256.32,1385.792L 1248.704,1378.176z
	 M 143.744,47.744l 157.824,383.296l 225.472-225.472L 143.744,47.744z" data-tags="pen, writing, write, blog, edit" />
<glyph unicode="&#x70;" d="M 1792-96l-1536,0 q-106,0 -181,75t-75,181l0,1536 q0,106 75,181t 181,75l 1536,0 q 106,0 181-75t 75-181l0-1536 q0-106 -75-181t-181-75zM 896,1184q0,106 -75,181t-181,75l-320,0 l0,0 q-26,0 -45-19t-19-45l0-896 q0-26 19-45t 45-19t 45,19
t 19,45l0,320 l 256,0 q 106,0 181,75t 75,181l0,128 zM 1536,1440l-128,0 q-106,0 -181-75t-75-181l0-64 q0-100 70-146t 186-46l 128,0 q 50,0 89-66t 39-126l0-64 q0-52 -38-90t-90-38l-128,0 q-54,0 -91,38t-37,90q0,26 -19,45t-45,19t-45-19t-19-45
q0-106 75-181t 181-75l 128,0 q 106,0 181,75t 75,181l0,64 q0,112 -77,216t-179,104l-128,0 l-16,0 q-30,0 -45,1t-33,6t-26,19t-8,38l0,64 q0,54 38,91t 90,37l 128,0 q 54,0 91-38t 37-90q0-26 19-45t 45-19t 45,19t 19,45q0,106 -75,181t-181,75z
M 640,928l-256,0 l0,384 l 256,0 q 54,0 91-38t 37-90l0-128 q0-54 -37-91t-91-37z" data-tags="photoshop" />
<glyph unicode="&#x61;" d="M 1792-96l-1536,0 q-106,0 -181,75t-75,181l0,1536 q0,106 75,181t 181,75l 1536,0 q 106,0 181-75t 75-181l0-1536 q0-106 -75-181t-181-75zM 1024,1184q0,106 -75,181t-181,75l-128,0 q-106,0 -181-75t-75-181l0-704 q0-26 19-45t 45-19t 45,19
t 19,45l0,288 q0,14 9,23t 23,9l 320,0 q 14,0 23-9t 9-23l0-288 q0-26 19-45t 45-19t 45,19t 19,45l0,704 zM 1600,1312q 26,0 45,19t 19,45t-19,45t-45,19l-256,0 q-26,0 -45-19t-19-45t 19-45t 45-19l 64,0 l0-768 l-64,0 q-26,0 -45-19
t-19-45t 19-45t 45-19l 256,0 q 26,0 45,19t 19,45t-19,45t-45,19l-64,0 l0,768 l 64,0 zM 864,928l-320,0 q-14,0 -23,9t-9,23l0,224 q0,52 37,90t 91,38l 128,0 q 52,0 90-38t 38-90l0-224 q0-14 -9-23t-23-9z" data-tags="illustrator" />
<glyph unicode="&#x63;" d="M 1792,1440l-256-1408q-8-48 -43-88t-85-40l-384,0 l-384,0 q-50,0 -85,40t-43,88l-256,1408q-54,0 -91,38t-37,91t 37,90t 91,37l0,128 q0,54 37,91t 91,37l 1280,0 q 52,0 90-37t 38-91l0-128 q 52,0 90-37t 38-90t-38-91t-90-38z" data-tags="cup" />
<glyph unicode="&#x6a;" d="M 1614,992q-218,0 -372,154t-154,372q0,128 72,243t 184,191q-8-20 -25-62t-26-64t-24-59t-22-60t-15-51t-12-49t-4-39q0-190 129-319t 319-129q 18,0 39,4t 49,12t 51,15t 60,22t 59,24t 64,26t 62,25q-76-112 -191-184t-243-72zM 1472,672
q 122,0 229,14t 283,50q-110-124 -266-190t-334-66q-220,0 -406,108t-294,294t-108,404q0,180 66,336t 190,266q-36-176 -50-283t-14-229q0-188 96-350t 258-258t 350-96zM 1152,160q 366,0 640,64q-140-156 -340-238t-428-82q-278,0 -514,137t-373,373t-137,514
q0,228 82,428t 238,340q-64-274 -64-640q0-182 71-348t 191-286t 286-191t 348-71z" data-tags="jquery" />
<glyph unicode="&#x1c0;" d="M 1536-96q-102,0 -200,42t-189,121t-162,159t-153,190q-34,46 -84,99t-130,123t-176,116t-186,46l-192,0 q-26,0 -45,19t-19,45t 19,45t 45,19l 192,0 q 74,0 111-1t 105-5t 109-14t 100-28t 102-45t 90-68t 87-95q 50-68 159-162t 161-94q 128,0 128,128l0,256 
q0,52 37,90t 91,38l 384,0 q 52,0 90-38t 38-90l0-384 q0-212 -150-362t-362-150zM 1792,1440q0-72 18-166q 2-10 36-81t 50-137l-116,0 q-18,84 -52,128q-46,48 -55,95t-9,161q0,160 75,272t 181,112q-76-30 -102-128t-26-256zM 1408,1542q0-76 18-178q 100-112 108-308l-126,0 
q0,128 -18,152q-110,124 -110,334q0,170 75,290t 181,120q 30,0 64-14q-84-36 -138-145t-54-251z" data-tags="pipe" />
<glyph unicode="&#x67;" d="M 1344-96l-960,0 q-52,0 -90,38t-38,90l0,1792 q0,54 37,91t 91,37l 1280,0 q 54,0 91-37t 37-91l0-1472 q0-186 -131-317t-317-131zM 1281,160q 53,0 90,38t 37,91t-37,90t-90,37t-91-37t-38-90t 38-91t 91-38zM 384,512l0-64 q0-14 9-23
t 23-9l 96,0 l0-96 q0-14 9-23t 23-9l 64,0 q 14,0 23,9t 9,23l0,96 l 96,0 q 14,0 23,9t 9,23l0,64 q0,14 -9,23t-23,9l-96,0 l0,96 q0,14 -9,23t-23,9l-64,0 q-14,0 -23-9t-9-23l0-96 l-96,0 q-14,0 -23-9t-9-23zM 1536,1632q0,26 -19,45t-45,19
l-896,0 q-26,0 -45-19t-19-45l0-640 q0-26 19-45t 45-19l 896,0 q 26,0 45,19t 19,45l0,640 zM 1537,672q-53,0 -91-37t-38-90t 38-91t 91-38t 90,38t 37,91t-37,90t-90,37z" data-tags="gameboy" />
<glyph unicode="&#x74;" d="M 1920,1184q0-256 -128-256q-6,0 -10-10q 10-64 10-118q0-216 -109-429t-285-339l-748,0 q-198,142 -310,394q-36-10 -84-10q-68,0 -128,93t-94,225t-34,258q0,320 256,320q 102,0 160-44q 108,140 267,220t 341,80q 194,0 362-91t 274-247q 4,12 4,18q0,132 94,226
t 226,94q 32,0 64-6l0-250 q-54,0 -91-37t-37-91zM 256,1184q-128,0 -128-228q0-114 55-241t 111-161q-38,130 -38,246q0,170 74,326q-34,58 -74,58zM 896,1697q0,53 37,90t 90,37t 91-37t 38-90t-38-91t-91-38t-90,38t-37,91z" data-tags="teapot" />
<glyph unicode="&#x66;" d="M 1408,1376c-3.968-171.2-132.48-315.776-132.48-315.776C 1275.52,1378.688, 1024,1632, 1024,1632s-3.392-189.568-130.752-380.672
			C 765.888,1697.216, 383.68,1952, 383.68,1952C 574.784,1251.328, 320,996.48, 320,486.912C 320,187.968, 573.056-96, 960-96c 573.248,0, 684.096,210.432, 743.36,447.552
			C 1785.024,678.016, 1662.72,1057.536, 1408,1376z M 1579.264,382.656C 1538.112,218.24, 1491.648,32, 960,32c-320.512,0-512,231.296-512,454.912
			c0,171.264, 31.232,311.872, 64.256,460.736c 41.984,188.736, 84.992,381.952, 66.368,637.504c 197.376-273.216, 267.648-635.2, 267.648-635.2
			s 183.744,257.984, 233.152,377.792C 1117.248,1250.752, 1152,992, 1152,736c0,0, 169.984,140.032, 297.472,350.592C 1583.744,845.824, 1632.128,594.112, 1579.264,382.656zM 1435.648,877.12 L 1447.552,810.88 C 1474.176,662.528 1459.264,487.168 1409.664,364.032 C 1404.672,351.552 1392.64,344 1380.032,344 C 1376,344 1371.904,344.768 1368,346.304 C 1351.616,352.896 1343.616,371.52 1350.272,387.904 C 1387.648,480.64 1403.392,611.2 1393.408,730.496 C 1329.152,658.688 1248.192,583.872 1075.2,501.696 L 1042.816,486.4 L 1031.168,520.192 C 1008,587.392 984.64,655.296 974.528,749.952 C 939.904,695.36 908.288,646.72 855.168,574.4 L 822.656,530.112 L 800.128,580.288 C 745.024,703.488 703.040,799.68 669.76,884.288 C 638.976,785.408 616,671.040 616,440.064 C 616,422.4 601.6,408.064 584,408.064 C 566.272,408.064 552,422.4 552,440.064 C 552,741.44 592,857.536 634.24,980.48 L 667.52,1077.12 L 698.176,990.72 C 731.136,897.856 774.528,795.52 835.904,657.152 C 876.352,714.304 903.488,757.312 936.256,809.216 L 1033.408,961.408 L 1033.408,852.032 C 1033.408,728.896 1055.552,648.448 1079.936,575.36 C 1250.112,660.992 1313.856,735.488 1381.248,814.080 L 1435.648,877.12 Z" data-tags="fire, danger, flame, hot" />
<glyph unicode="&#x20;" horiz-adv-x="1024" />
</font>
</defs>
</svg>
